<?xml version="1.0" encoding="UTF-8"?>
<svg id="Camada_2" data-name="Camada 2" xmlns="http://www.w3.org/2000/svg" viewBox="0 0 454.83 158.24">
  <defs>
    <style>
      .cls-1 {
        fill: #e30a14;
      }

      .cls-2 {
        fill: #fff;
      }
    </style>
  </defs>
  <g id="Camada_1-2" data-name="Camada 1">
    <g>
      <rect class="cls-1" x="-6.79" y="92.52" width="76.65" height="16.05" rx="3" ry="3" transform="translate(80.33 7.15) rotate(45)"/>
      <rect class="cls-1" x="-6.79" y="49.67" width="76.65" height="16.05" rx="3" ry="3" transform="translate(-31.56 39.2) rotate(-45)"/>
      <rect class="cls-1" x="88.38" y="49.67" width="76.65" height="16.05" rx="3" ry="3" transform="translate(175.51 188.09) rotate(-135)"/>
      <rect class="cls-1" x="88.38" y="92.52" width="76.65" height="16.05" rx="3" ry="3" transform="translate(287.4 82.04) rotate(135)"/>
      <rect class="cls-1" x="71.09" y="2.08" width="16.05" height="16.05" rx="3" ry="3" transform="translate(127.92 73.2) rotate(-135)"/>
      <rect class="cls-1" x="71.09" y="140.1" width="16.05" height="16.05" rx="3" ry="3" transform="translate(30.32 308.82) rotate(-135)"/>
      <rect class="cls-1" x="59.3" y="59.3" width="39.65" height="39.65" rx="3" ry="3" transform="translate(79.12 191.01) rotate(-135)"/>
      <g>
        <path class="cls-2" d="M216.55,83.2l-7.94,8.15v12.8h-9.3v-50.06h9.3v25.67l24.75-25.67h10.44l-21.03,22.38,22.31,27.68h-10.87l-17.66-20.95Z"/>
        <path class="cls-2" d="M257.04,54.09h9.3v50.06h-9.3v-50.06Z"/>
        <path class="cls-2" d="M295.6,61.96h-16.59v-7.87h42.48v7.87h-16.59v42.19h-9.3v-42.19Z"/>
        <path class="cls-2" d="M334.09,54.09h9.3v50.06h-9.3v-50.06Z"/>
        <path class="cls-2" d="M371.79,61.88v15.23h24.17v7.87h-24.17v19.17h-9.3v-50.06h36.54v7.8h-27.25Z"/>
        <path class="cls-2" d="M435.23,86.49v17.66h-9.3v-17.52l-19.67-32.54h9.94l14.66,24.39,14.8-24.39h9.15l-19.6,32.4Z"/>
      </g>
    </g>
  </g>
</svg>